<svg width="113" height="113" viewBox="0 0 113 113" fill="none" xmlns="http://www.w3.org/2000/svg">
<circle cx="56.5259" cy="56.7786" r="35.3863" transform="rotate(150 56.5259 56.7786)" stroke="#00C2FF" stroke-width="1.2638"/>
<path d="M25.8674 74.4793C23.1545 76.0456 22.1961 79.5449 24.1209 82.0164C27.4267 86.2608 31.546 89.8296 36.2572 92.5026C42.6191 96.1122 49.8296 97.9573 57.1434 97.8474C64.4572 97.7374 71.6089 95.6763 77.8595 91.8771C82.4882 89.0637 86.4984 85.3727 89.675 81.0308C91.5246 78.5026 90.4615 75.0337 87.7028 73.5496C84.9441 72.0656 81.542 73.1448 79.5618 75.572C77.4333 78.181 74.8682 80.4202 71.9674 82.1834C67.4432 84.9333 62.2667 86.4251 56.9729 86.5047C51.679 86.5843 46.46 85.2488 41.8551 82.6361C38.9027 80.961 36.2714 78.7998 34.0655 76.256C32.0131 73.8894 28.5802 72.913 25.8674 74.4793Z" fill="#00C2FF"/>
</svg>
